<svg width="65" height="77" viewBox="0 0 65 77" fill="none" xmlns="http://www.w3.org/2000/svg">
<path d="M32.3332 0C18.5813 0 8.65838 10.0237 8.65838 10.0237C8.65838 10.0237 -3.18896 21.415 0.833152 36.0922C4.6936 50.1794 27.9969 76.9605 32.3332 76.9605C39.0929 76.9605 62.3634 43.6753 63.8894 36.324C67.2756 20.0103 56.6959 10.3822 56.6959 10.3822C56.6959 10.3822 46.7498 0 32.3332 0ZM32.3774 5.96705C44.0983 5.96705 52.1847 14.4082 52.1847 14.4082C52.1847 14.4082 60.7862 22.2357 58.0331 35.499C56.7925 41.4757 37.8732 68.5375 32.3774 68.5375C28.852 68.5375 9.9063 46.7639 6.76769 35.3108C3.49766 23.378 13.1296 14.1166 13.1296 14.1166C13.1296 14.1166 21.197 5.96705 32.3774 5.96705Z" fill="white"/>
<path d="M25.5769 22.8132C23.152 22.8132 21.1998 24.7227 21.1998 27.0937V37.3268C21.1998 39.698 23.152 41.6066 25.5769 41.6066H40.5893C43.0144 41.6066 44.9664 39.698 44.9664 37.3268V27.0937C44.9664 24.7227 43.0144 22.8132 40.5893 22.8132H39.2211V24.0419C39.2211 24.5208 38.8273 24.9066 38.3375 24.9066H38.1427C37.6529 24.9066 37.2583 24.5208 37.2583 24.0419V22.8132H34.0649V24.0419C34.0649 24.5208 33.6703 24.9066 33.1805 24.9066H32.9857C32.4959 24.9066 32.1021 24.5208 32.1021 24.0419V22.8132H28.9078V24.0419C28.9078 24.5208 28.5141 24.9066 28.0243 24.9066H27.8295C27.3397 24.9066 26.9451 24.5208 26.9451 24.0419V22.8132H25.5769ZM24.9761 28.0322H31.8524C31.9905 28.0322 32.1021 28.1062 32.1021 28.1988V29.7279C32.1021 29.8206 31.9906 29.8953 31.8524 29.8953H24.9761C24.8379 29.8953 24.7263 29.8205 24.7263 29.7279V28.1988C24.7263 28.1061 24.8379 28.0322 24.9761 28.0322ZM34.3138 28.0322H41.1901C41.3283 28.0322 41.4399 28.1062 41.4399 28.1988V29.7279C41.4399 29.8206 41.3283 29.8953 41.1901 29.8953H34.3138C34.1757 29.8953 34.0649 29.8205 34.0649 29.7279V28.1988C34.0649 28.1061 34.1757 28.0322 34.3138 28.0322ZM24.9761 30.9105H31.8524C31.9905 30.9105 32.1021 30.9852 32.1021 31.0779V32.6069C32.1021 32.6997 31.9906 32.7736 31.8524 32.7736H24.9761C24.8379 32.7736 24.7263 32.6996 24.7263 32.6069V31.0779C24.7263 30.9852 24.8379 30.9105 24.9761 30.9105ZM34.3138 30.9105H41.1901C41.3283 30.9105 41.4399 30.9852 41.4399 31.0779V32.6069C41.4399 32.6997 41.3283 32.7736 41.1901 32.7736H34.3138C34.1757 32.7736 34.0649 32.6996 34.0649 32.6069V31.0779C34.0649 30.9852 34.1757 30.9105 34.3138 30.9105ZM24.9761 33.7888H31.8524C31.9905 33.7888 32.1013 33.8636 32.1013 33.9562V35.4852C32.1013 35.5778 31.9905 35.6526 31.8524 35.6526H24.9761C24.8379 35.6526 24.7263 35.5779 24.7263 35.4852V33.9562C24.7263 33.8636 24.8379 33.7888 24.9761 33.7888ZM34.3138 33.7888H41.1901C41.3283 33.7888 41.4399 33.8636 41.4399 33.9562V35.4852C41.4399 35.5778 41.3283 35.6526 41.1901 35.6526H34.3138C34.1757 35.6526 34.0649 35.5779 34.0649 35.4852V33.9562C34.0649 33.8636 34.1757 33.7888 34.3138 33.7888ZM25.0468 36.7616H31.9231C32.0612 36.7616 32.172 36.8363 32.172 36.929V38.458C32.172 38.5506 32.0612 38.6254 31.9231 38.6254H25.0468C24.9086 38.6254 24.797 38.5507 24.797 38.458V36.929C24.797 36.8364 24.9086 36.7616 25.0468 36.7616ZM34.3845 36.7616H41.2608C41.399 36.7616 41.5106 36.8363 41.5106 36.929V38.458C41.5106 38.5506 41.399 38.6254 41.2608 38.6254H34.3845C34.2464 38.6254 34.1355 38.5507 34.1355 38.458V36.929C34.1355 36.8364 34.2463 36.7616 34.3845 36.7616Z" fill="white"/>
</svg>
