<svg width="25" height="21" viewBox="0 0 25 21" fill="none" xmlns="http://www.w3.org/2000/svg">
<path d="M20.5001 0C20.4806 0.105463 20.4613 0.208129 20.442 0.308069C20.4228 0.408009 20.4035 0.50523 20.3842 0.599874C20.3649 0.694519 20.3454 0.78651 20.3259 0.875934C20.3064 0.965434 20.2866 1.05237 20.2667 1.13688C20.2467 1.22138 20.2265 1.30338 20.206 1.38312C20.1855 1.46286 20.1645 1.54019 20.1433 1.61532C20.1219 1.69044 20.1002 1.7633 20.0779 1.83396C20.0556 1.90462 20.0328 1.97316 20.0094 2.03958C19.986 2.10601 19.962 2.1704 19.9373 2.23281C19.9125 2.29523 19.8871 2.3556 19.8609 2.41408C19.8346 2.47256 19.8076 2.52922 19.7797 2.584C19.7518 2.63877 19.7229 2.69181 19.6931 2.74318C19.6633 2.79447 19.6325 2.8441 19.6007 2.89207C19.5689 2.94003 19.536 2.98641 19.5019 3.03127C19.4679 3.07613 19.4326 3.11941 19.3961 3.16125C19.3596 3.20308 19.3219 3.24356 19.2828 3.28267C19.2436 3.32179 19.2032 3.35954 19.1613 3.39601C19.1195 3.43247 19.0761 3.46772 19.0313 3.50184C18.9864 3.53596 18.9401 3.5688 18.8921 3.60065C18.8442 3.6325 18.7945 3.6633 18.7432 3.69303C18.692 3.72284 18.6389 3.75166 18.5841 3.77957C18.5293 3.80749 18.4726 3.83457 18.4141 3.86075C18.3557 3.88693 18.2952 3.91242 18.2329 3.93716C18.1705 3.9619 18.1061 3.98596 18.0396 4.00934C17.9732 4.03279 17.9047 4.05556 17.834 4.07781C17.7633 4.10012 17.6905 4.12184 17.6154 4.14317C17.5402 4.16451 17.4629 4.18539 17.3832 4.20589C17.3034 4.22639 17.2214 4.24667 17.1369 4.26657C17.0524 4.28646 16.9655 4.30621 16.876 4.32581C16.7865 4.34533 16.6945 4.36476 16.5999 4.38406C16.5052 4.40335 16.408 4.42264 16.3081 4.44193C16.2081 4.46123 16.1055 4.48052 16 4.49997C16.1055 4.51941 16.2081 4.5387 16.3081 4.55799C16.408 4.57728 16.5052 4.5965 16.5999 4.61587C16.6945 4.63516 16.7865 4.6546 16.876 4.67412C16.9655 4.69364 17.0524 4.71339 17.1369 4.73336C17.2214 4.75333 17.3034 4.77353 17.3832 4.79404C17.4629 4.81454 17.5402 4.83549 17.6154 4.85683C17.6905 4.87816 17.7633 4.89987 17.834 4.92219C17.9047 4.94444 17.9732 4.96729 18.0396 4.99066C18.1061 5.01404 18.1705 5.0381 18.2329 5.06284C18.2953 5.08758 18.3557 5.113 18.4141 5.13925C18.4726 5.1655 18.5293 5.19251 18.5841 5.22043C18.6389 5.24834 18.6919 5.27717 18.7432 5.30698C18.7945 5.33679 18.8442 5.36757 18.8921 5.39935C18.9401 5.4312 18.9865 5.46411 19.0313 5.49823C19.0761 5.53228 19.1194 5.56753 19.1613 5.60408C19.2032 5.64054 19.2436 5.67829 19.2828 5.7174C19.3219 5.75652 19.3596 5.79691 19.3961 5.83883C19.4326 5.88066 19.4678 5.92401 19.5019 5.96888C19.5361 6.01374 19.5689 6.06004 19.6007 6.10801C19.6326 6.15597 19.6634 6.2056 19.6931 6.2569C19.7229 6.30819 19.7518 6.36122 19.7797 6.41607C19.8076 6.47085 19.8347 6.52752 19.8609 6.586C19.8871 6.64448 19.9125 6.70493 19.9373 6.76727C19.962 6.82969 19.9861 6.89399 20.0094 6.96049C20.0328 7.02692 20.0557 7.09546 20.0779 7.16612C20.1002 7.23678 20.1219 7.30964 20.1433 7.38477C20.1646 7.45989 20.1855 7.53721 20.206 7.61695C20.2265 7.69669 20.2468 7.7787 20.2667 7.86321C20.2866 7.94771 20.3063 8.03464 20.3259 8.12407C20.3454 8.21357 20.3649 8.30556 20.3842 8.40013C20.4035 8.49469 20.4228 8.59199 20.442 8.69193C20.4613 8.79187 20.4806 8.89454 20.5001 9C20.5195 8.89454 20.5388 8.79187 20.5581 8.69193C20.5774 8.59199 20.5966 8.49477 20.616 8.40013C20.6354 8.30548 20.6547 8.21349 20.6742 8.12407C20.6938 8.03464 20.7135 7.94764 20.7335 7.86321C20.7535 7.7787 20.7737 7.69661 20.7942 7.61695C20.8147 7.53721 20.8356 7.45989 20.8569 7.38477C20.8781 7.30964 20.8999 7.23678 20.9222 7.16612C20.9445 7.09546 20.9673 7.02692 20.9907 6.96049C21.0141 6.89407 21.0382 6.82969 21.0629 6.76727C21.0876 6.70486 21.1131 6.64448 21.1393 6.586C21.1656 6.52752 21.1926 6.47085 21.2205 6.41607C21.2484 6.36122 21.2772 6.30827 21.307 6.2569C21.3369 6.20553 21.3676 6.15597 21.3994 6.10801C21.4313 6.06004 21.4642 6.01366 21.4982 5.96888C21.5323 5.92409 21.5675 5.88074 21.6041 5.83883C21.6405 5.79699 21.6783 5.75652 21.7174 5.7174C21.7565 5.67829 21.7969 5.64054 21.8388 5.60408C21.8807 5.56761 21.924 5.53235 21.9689 5.49823C22.0137 5.46419 22.06 5.4312 22.108 5.39935C22.156 5.3675 22.2056 5.33671 22.2569 5.30698C22.3082 5.27717 22.3612 5.24834 22.416 5.22043C22.4709 5.19251 22.5275 5.16543 22.5859 5.13925C22.6444 5.113 22.7049 5.08758 22.7672 5.06284C22.8296 5.0381 22.8939 5.01404 22.9604 4.99066C23.0269 4.96721 23.0954 4.94444 23.1661 4.92219C23.2367 4.89987 23.3096 4.87816 23.3847 4.85683C23.4599 4.83549 23.5372 4.81461 23.6169 4.79404C23.6967 4.77346 23.7787 4.75326 23.8632 4.73336C23.9477 4.71339 24.0346 4.69371 24.124 4.67412C24.2135 4.65452 24.3055 4.63516 24.4001 4.61587C24.4948 4.59658 24.592 4.57728 24.6919 4.55799C24.7919 4.5387 24.8945 4.51941 25 4.49997C24.8945 4.48052 24.7919 4.46123 24.6919 4.44193C24.592 4.42264 24.4948 4.40342 24.4001 4.38406C24.3055 4.36476 24.2135 4.34533 24.124 4.32581C24.0346 4.30629 23.9476 4.28654 23.8632 4.26657C23.7787 4.24659 23.6967 4.22639 23.6169 4.20589C23.5372 4.18539 23.4599 4.16443 23.3847 4.14317C23.3096 4.12184 23.2367 4.10012 23.1661 4.07781C23.0954 4.05556 23.0269 4.03271 22.9604 4.00934C22.894 3.98596 22.8296 3.9619 22.7672 3.93716C22.7048 3.91242 22.6444 3.887 22.5859 3.86075C22.5275 3.8345 22.4708 3.80749 22.416 3.77957C22.3612 3.75166 22.3082 3.72284 22.2569 3.69303C22.2056 3.66322 22.156 3.63243 22.108 3.60065C22.06 3.5688 22.0137 3.53589 21.9689 3.50184C21.9241 3.4678 21.8807 3.43255 21.8388 3.39601C21.797 3.35954 21.7565 3.32179 21.7174 3.28267C21.6783 3.24356 21.6405 3.20316 21.6041 3.16125C21.5676 3.11941 21.5323 3.07606 21.4982 3.03127C21.4642 2.98641 21.4313 2.94011 21.3994 2.89207C21.3676 2.8441 21.3368 2.79447 21.307 2.74318C21.2772 2.69188 21.2484 2.63885 21.2205 2.584C21.1926 2.52915 21.1655 2.47256 21.1393 2.41408C21.1131 2.3556 21.0876 2.29515 21.0629 2.23281C21.0382 2.1704 21.0141 2.10608 20.9907 2.03958C20.9673 1.97316 20.9445 1.90462 20.9222 1.83396C20.9 1.7633 20.8782 1.69044 20.8569 1.61532C20.8355 1.54019 20.8147 1.46286 20.7942 1.38312C20.7736 1.30338 20.7534 1.22138 20.7335 1.13688C20.7136 1.05237 20.6938 0.965434 20.6742 0.875934C20.6547 0.78651 20.6353 0.694519 20.616 0.599874C20.5967 0.50523 20.5774 0.408009 20.5581 0.308069C20.5387 0.208129 20.5195 0.105463 20.5001 0Z" fill="url(#paint0_linear_1378_1945)"/>
<path d="M14 0C13.9914 0.046884 13.9828 0.0924532 13.9742 0.136887C13.9657 0.181321 13.9571 0.22453 13.9485 0.266595C13.9399 0.30866 13.9313 0.349506 13.9226 0.389284C13.914 0.429061 13.9051 0.467691 13.8963 0.505182C13.8874 0.542755 13.8784 0.579181 13.8694 0.61463C13.8602 0.650079 13.851 0.684471 13.8415 0.717796C13.832 0.751203 13.8224 0.783543 13.8124 0.81499C13.8025 0.846436 13.7924 0.876823 13.782 0.906391C13.7716 0.935959 13.7609 0.964549 13.7499 0.992238C13.7388 1.01993 13.7276 1.0468 13.7159 1.07277C13.7042 1.09874 13.6922 1.12391 13.6798 1.14833C13.6674 1.17267 13.6545 1.19627 13.6413 1.21906C13.6281 1.24185 13.6144 1.26391 13.6002 1.28523C13.5861 1.30654 13.5715 1.32712 13.5563 1.34705C13.5412 1.36698 13.5255 1.38626 13.5092 1.4048C13.493 1.42334 13.4762 1.4414 13.4588 1.45879C13.4414 1.47619 13.4235 1.49293 13.4049 1.50919C13.3862 1.52536 13.367 1.54104 13.3471 1.55624C13.3273 1.57143 13.3066 1.58605 13.2853 1.60018C13.264 1.61431 13.2419 1.62803 13.2191 1.64127C13.1963 1.6545 13.1727 1.66732 13.1484 1.67973C13.124 1.69215 13.0989 1.70416 13.0728 1.71584C13.0469 1.72752 13.02 1.73879 12.9923 1.74982C12.9646 1.76084 12.9359 1.77146 12.9065 1.78191C12.8769 1.79229 12.8465 1.80242 12.8151 1.81238C12.7836 1.82227 12.7513 1.83198 12.7179 1.84138C12.6845 1.85085 12.6501 1.86017 12.6147 1.86931C12.5792 1.87846 12.5428 1.88744 12.5053 1.89627C12.4677 1.90509 12.4291 1.91391 12.3893 1.92257C12.3495 1.93123 12.3087 1.93989 12.2666 1.94846C12.2245 1.95704 12.1813 1.96561 12.1369 1.97419C12.0925 1.98276 12.0469 1.99134 12 2C12.0469 2.00866 12.0925 2.01724 12.1369 2.02581C12.1813 2.03439 12.2245 2.04296 12.2666 2.05154C12.3087 2.06011 12.3495 2.06877 12.3893 2.07743C12.4291 2.08609 12.4677 2.09491 12.5053 2.10373C12.5428 2.11264 12.5792 2.12162 12.6147 2.13069C12.6501 2.13983 12.6845 2.14915 12.7179 2.15862C12.7513 2.1681 12.7836 2.17773 12.8151 2.18762C12.8465 2.1975 12.8769 2.20762 12.9065 2.21808C12.9359 2.22845 12.9646 2.23916 12.9923 2.25018C13.02 2.26121 13.0469 2.27248 13.0728 2.28416C13.0988 2.29584 13.124 2.30785 13.1484 2.32027C13.1727 2.33268 13.1963 2.3455 13.2191 2.35873C13.2419 2.37197 13.264 2.38569 13.2853 2.39982C13.3066 2.41395 13.3272 2.42857 13.3471 2.44376C13.367 2.45896 13.3863 2.47456 13.4049 2.49081C13.4235 2.50707 13.4414 2.52381 13.4588 2.54121C13.4762 2.5586 13.493 2.57657 13.5092 2.5952C13.5255 2.61382 13.5411 2.6331 13.5563 2.65295C13.5714 2.67288 13.5861 2.69346 13.6002 2.71478C13.6144 2.73609 13.6281 2.75815 13.6413 2.78094C13.6545 2.80373 13.6674 2.82733 13.6798 2.85167C13.6922 2.87601 13.7042 2.90116 13.7159 2.92722C13.7276 2.95319 13.7388 2.98007 13.7499 3.00776C13.7609 3.03545 13.7715 3.06412 13.782 3.09361C13.7923 3.12318 13.8025 3.15355 13.8124 3.185C13.8223 3.21645 13.832 3.2488 13.8415 3.2822C13.851 3.31561 13.8603 3.34991 13.8694 3.38536C13.8785 3.42081 13.8875 3.45725 13.8963 3.49482C13.9052 3.53239 13.914 3.57102 13.9226 3.61072C13.9313 3.65049 13.9399 3.69133 13.9485 3.7334C13.9571 3.77546 13.9657 3.81867 13.9742 3.8631C13.9828 3.90754 13.9914 3.95312 14 4C14.0087 3.95312 14.0173 3.90754 14.0259 3.8631C14.0344 3.81867 14.043 3.77546 14.0516 3.7334C14.0602 3.69133 14.0688 3.65049 14.0775 3.61072C14.0861 3.57094 14.095 3.53231 14.1038 3.49482C14.1126 3.45733 14.1217 3.42081 14.1307 3.38536C14.1398 3.34991 14.1492 3.31553 14.1587 3.2822C14.1681 3.2488 14.1778 3.21645 14.1877 3.185C14.1976 3.15364 14.2077 3.12318 14.2182 3.09361C14.2286 3.06412 14.2393 3.03545 14.2503 3.00776C14.2613 2.98007 14.2726 2.95319 14.2843 2.92722C14.296 2.90125 14.308 2.87609 14.3204 2.85167C14.3328 2.82733 14.3456 2.80373 14.3588 2.78094C14.3721 2.75815 14.3858 2.73609 14.3999 2.71478C14.4141 2.69346 14.4287 2.67288 14.4439 2.65295C14.459 2.63302 14.4747 2.61382 14.4909 2.5952C14.5072 2.57657 14.5239 2.5586 14.5413 2.54121C14.5587 2.52381 14.5767 2.50707 14.5953 2.49081C14.6139 2.47464 14.6332 2.45896 14.6531 2.44376C14.6729 2.42857 14.6936 2.41395 14.7149 2.39982C14.7362 2.38569 14.7583 2.37197 14.781 2.35873C14.8038 2.3455 14.8274 2.33268 14.8518 2.32027C14.8761 2.30785 14.9013 2.29584 14.9273 2.28416C14.9533 2.27248 14.9802 2.26121 15.0079 2.25018C15.0356 2.23916 15.0642 2.22853 15.0937 2.21808C15.1232 2.2077 15.1537 2.19758 15.1851 2.18762C15.2166 2.17773 15.2489 2.16802 15.2822 2.15862C15.3155 2.14923 15.3499 2.13983 15.3854 2.13069C15.4208 2.12154 15.4573 2.11256 15.4948 2.10373C15.5324 2.09491 15.571 2.08609 15.6107 2.07743C15.6505 2.06877 15.6913 2.06011 15.7334 2.05154C15.7755 2.04296 15.8187 2.03439 15.8631 2.02581C15.9075 2.01724 15.9531 2.00866 16 2C15.9531 1.99134 15.9075 1.98276 15.8631 1.97419C15.8187 1.96561 15.7755 1.95704 15.7334 1.94846C15.6913 1.93989 15.6505 1.93123 15.6107 1.92257C15.5709 1.91391 15.5323 1.90509 15.4948 1.89627C15.4573 1.88736 15.4208 1.87838 15.3854 1.86931C15.3499 1.86025 15.3155 1.85093 15.2822 1.84138C15.2488 1.8319 15.2165 1.82227 15.1851 1.81238C15.1537 1.8025 15.1233 1.79237 15.0937 1.78191C15.0641 1.77154 15.0356 1.76084 15.0079 1.74982C14.9802 1.73879 14.9533 1.72752 14.9273 1.71584C14.9014 1.70416 14.8762 1.69215 14.8518 1.67973C14.8274 1.66732 14.8038 1.6545 14.781 1.64127C14.7583 1.62803 14.7362 1.61439 14.7149 1.60018C14.6936 1.58605 14.673 1.57143 14.6531 1.55624C14.6331 1.54104 14.6138 1.52544 14.5953 1.50919C14.5767 1.49293 14.5587 1.47619 14.5413 1.45879C14.5239 1.4414 14.5072 1.42343 14.4909 1.4048C14.4748 1.38618 14.4591 1.36698 14.4439 1.34705C14.4288 1.32712 14.4141 1.30654 14.3999 1.28523C14.3858 1.26391 14.3721 1.24185 14.3588 1.21906C14.3456 1.19627 14.3328 1.17267 14.3204 1.14833C14.308 1.12399 14.296 1.09883 14.2843 1.07277C14.2726 1.0468 14.2613 1.01993 14.2503 0.992238C14.2393 0.964549 14.2287 0.935877 14.2182 0.906391C14.2078 0.876904 14.1977 0.846436 14.1877 0.81499C14.1779 0.783543 14.1681 0.751203 14.1587 0.717796C14.1492 0.684389 14.1399 0.650079 14.1307 0.61463C14.1216 0.579181 14.1126 0.542755 14.1038 0.505182C14.095 0.46761 14.0861 0.42898 14.0775 0.389284C14.0688 0.349506 14.0602 0.30866 14.0516 0.266595C14.043 0.22453 14.0344 0.181321 14.0259 0.136887C14.0173 0.0924532 14.0087 0.046884 14 0Z" fill="url(#paint1_linear_1378_1945)"/>
<path d="M3.13089 6C1.39637 6 0 7.52412 0 9.41655V17.584C0 19.4766 1.39637 21 3.13089 21H13.8691C15.6037 21 17 19.4766 17 17.584V9.41655C17 7.52412 15.6037 6 13.8691 6H12.8904V6.98071C12.8904 7.36296 12.6088 7.67089 12.2584 7.67089H12.1191C11.7687 7.67089 11.4865 7.36296 11.4865 6.98071V6H9.20225V6.98071C9.20225 7.36296 8.92001 7.67089 8.56966 7.67089H8.43034C8.07999 7.67089 7.79831 7.36296 7.79831 6.98071V6H5.51348V6.98071C5.51348 7.36296 5.23181 7.67089 4.88145 7.67089H4.74213C4.39178 7.67089 4.10955 7.36296 4.10955 6.98071V6H3.13089ZM2.70112 10.1656H7.61966C7.71848 10.1656 7.79831 10.2246 7.79831 10.2986V11.519C7.79831 11.593 7.71852 11.6526 7.61966 11.6526H2.70112C2.6023 11.6526 2.52247 11.5929 2.52247 11.519V10.2986C2.52247 10.2246 2.60226 10.1656 2.70112 10.1656ZM9.38034 10.1656H14.2989C14.3977 10.1656 14.4775 10.2246 14.4775 10.2986V11.519C14.4775 11.593 14.3977 11.6526 14.2989 11.6526H9.38034C9.28151 11.6526 9.20225 11.5929 9.20225 11.519V10.2986C9.20225 10.2246 9.2815 10.1656 9.38034 10.1656ZM2.70112 12.4629H7.61966C7.71848 12.4629 7.79831 12.5225 7.79831 12.5965V13.8169C7.79831 13.8909 7.71852 13.9499 7.61966 13.9499H2.70112C2.6023 13.9499 2.52247 13.8908 2.52247 13.8169V12.5965C2.52247 12.5225 2.60226 12.4629 2.70112 12.4629ZM9.38034 12.4629H14.2989C14.3977 12.4629 14.4775 12.5225 14.4775 12.5965V13.8169C14.4775 13.8909 14.3977 13.9499 14.2989 13.9499H9.38034C9.28151 13.9499 9.20225 13.8908 9.20225 13.8169V12.5965C9.20225 12.5225 9.2815 12.4629 9.38034 12.4629ZM2.70112 14.7602H7.61966C7.71848 14.7602 7.79774 14.8199 7.79774 14.8938V16.1142C7.79774 16.1881 7.7185 16.2478 7.61966 16.2478H2.70112C2.6023 16.2478 2.52247 16.1882 2.52247 16.1142V14.8938C2.52247 14.8199 2.60226 14.7602 2.70112 14.7602ZM9.38034 14.7602H14.2989C14.3977 14.7602 14.4775 14.8199 14.4775 14.8938V16.1142C14.4775 16.1881 14.3977 16.2478 14.2989 16.2478H9.38034C9.28151 16.2478 9.20225 16.1882 9.20225 16.1142V14.8938C9.20225 14.8199 9.2815 14.7602 9.38034 14.7602ZM2.75169 17.1329H7.67023C7.76905 17.1329 7.84831 17.1926 7.84831 17.2665V18.4869C7.84831 18.5608 7.76906 18.6205 7.67023 18.6205H2.75169C2.65287 18.6205 2.57304 18.5609 2.57304 18.4869V17.2665C2.57304 17.1926 2.65283 17.1329 2.75169 17.1329ZM9.4309 17.1329H14.3494C14.4483 17.1329 14.5281 17.1926 14.5281 17.2665V18.4869C14.5281 18.5608 14.4483 18.6205 14.3494 18.6205H9.4309C9.33208 18.6205 9.2528 18.5609 9.2528 18.4869V17.2665C9.2528 17.1926 9.33205 17.1329 9.4309 17.1329Z" fill="url(#paint2_linear_1378_1945)"/>
<defs>
<linearGradient id="paint0_linear_1378_1945" x1="16" y1="4.5" x2="25" y2="4.5" gradientUnits="userSpaceOnUse">
<stop stop-color="#FF5733"/>
<stop offset="1" stop-color="#C70039"/>
</linearGradient>
<linearGradient id="paint1_linear_1378_1945" x1="12" y1="2" x2="16" y2="2" gradientUnits="userSpaceOnUse">
<stop stop-color="#FF5733"/>
<stop offset="1" stop-color="#C70039"/>
</linearGradient>
<linearGradient id="paint2_linear_1378_1945" x1="0" y1="13.5" x2="17" y2="13.5" gradientUnits="userSpaceOnUse">
<stop stop-color="#FF5733"/>
<stop offset="1" stop-color="#C70039"/>
</linearGradient>
</defs>
</svg>
